<svg width="320" height="176" viewBox="0 0 320 176" fill="none" xmlns="http://www.w3.org/2000/svg">
<path fill-rule="evenodd" clip-rule="evenodd" d="M41.3514 166.483H7L65.1134 0H103.38L161.574 166.483H127.222L113.777 126.125H54.7719L41.3514 166.483ZM61.6881 100.903H106.845L84.8806 34.9716H83.6128L61.6881 100.903ZM193.327 164.683L193.314 164.677C186.957 161.748 181.891 157.421 178.15 151.706L178.145 151.698C174.428 145.934 172.61 138.887 172.61 130.632C172.61 123.541 173.907 117.556 176.594 112.758C179.246 108.022 182.872 104.225 187.459 101.383C191.975 98.5841 197.046 96.481 202.663 95.0644C208.276 93.6088 214.073 92.5584 220.053 91.9123L220.057 91.9118C227.179 91.167 232.947 90.5028 237.366 89.9193C241.743 89.288 244.721 88.3634 246.473 87.2495C248.076 86.2114 248.918 84.6411 248.918 82.2823V81.8028C248.918 76.0743 247.245 71.8256 244.056 68.8497C240.859 65.8657 236.15 64.2691 229.71 64.2691C222.878 64.2691 217.632 65.7715 213.827 68.6234C209.948 71.5706 207.392 74.999 206.069 78.9012L205.696 80.0025L176.186 75.7759L176.626 74.2239C178.795 66.566 182.389 60.1209 187.427 54.9288C192.445 49.7032 198.574 45.8083 205.786 43.2371C212.982 40.6184 220.909 39.319 229.551 39.319C235.525 39.319 241.47 40.0248 247.384 41.4346C253.346 42.8559 258.806 45.2097 263.753 48.4989C268.767 51.7784 272.777 56.247 275.784 61.8707C278.884 67.5668 280.391 74.6079 280.391 82.9216V166.483H250.027V151.765C248.413 154.25 246.419 156.605 244.053 158.832C240.78 161.909 236.68 164.368 231.788 166.232L231.78 166.235C226.888 168.064 221.197 168.96 214.734 168.96C206.853 168.96 199.71 167.544 193.327 164.683ZM224.084 112.571C225.986 112.304 228.231 111.985 230.819 111.612C233.408 111.239 236.023 110.813 238.664 110.333C241.305 109.854 243.682 109.294 245.795 108.655C247.089 108.273 248.156 107.872 248.997 107.453C249.565 107.17 250.029 106.878 250.391 106.577V121.042C250.391 125.571 249.229 129.753 246.905 133.589C244.633 137.425 241.385 140.515 237.158 142.859C232.932 145.15 227.94 146.296 222.182 146.296C216.213 146.296 211.3 144.937 207.444 142.22C203.587 139.503 201.659 135.48 201.659 130.152C201.659 126.423 202.637 123.386 204.591 121.042C206.546 118.644 209.213 116.78 212.594 115.448C215.975 114.116 219.805 113.157 224.084 112.571Z" fill="#EEF5FC"/>
<path fill-rule="evenodd" clip-rule="evenodd" d="M34.3514 173.523H0L58.1134 7.03998H96.3795L154.574 173.523H120.222L106.777 133.165H47.7719L34.3514 173.523ZM33.3482 172.116H1.96948L59.1009 8.44651H95.3924L152.603 172.116H121.224L107.779 131.758H46.7687L33.3482 172.116ZM54.6881 107.943H99.8454L77.8806 42.0116H76.6128L54.6881 107.943ZM56.6268 106.536H97.9055L77.2473 44.5268L56.6268 106.536ZM186.327 171.723L186.314 171.717C179.957 168.788 174.891 164.461 171.15 158.746L171.145 158.738C167.428 152.974 165.61 145.927 165.61 137.672C165.61 130.581 166.907 124.596 169.594 119.798C172.246 115.062 175.872 111.265 180.459 108.423C184.975 105.624 190.046 103.521 195.663 102.104C201.276 100.649 207.073 99.5984 213.053 98.9523L213.057 98.9517C220.179 98.2069 225.947 97.5428 230.366 96.9593C234.743 96.328 237.721 95.4034 239.473 94.2894C241.076 93.2514 241.918 91.6811 241.918 89.3223V88.8428C241.918 83.1143 240.245 78.8656 237.056 75.8897C233.859 72.9056 229.15 71.309 222.71 71.309C215.878 71.309 210.632 72.8115 206.827 75.6634C202.948 78.6106 200.392 82.039 199.069 85.9411L198.696 87.0425L169.186 82.8159L169.626 81.2639C171.795 73.606 175.389 67.1609 180.427 61.9687C185.445 56.7432 191.574 52.8483 198.786 50.2771C205.982 47.6584 213.909 46.359 222.551 46.359C228.525 46.359 234.47 47.0648 240.384 48.4746C246.346 49.8959 251.806 52.2497 256.753 55.5389C261.767 58.8184 265.777 63.287 268.784 68.9107C271.884 74.6068 273.391 81.6478 273.391 89.9616V173.523H243.027V158.805C241.413 161.29 239.419 163.645 237.053 165.872C233.78 168.948 229.68 171.408 224.788 173.272L224.78 173.275C219.888 175.104 214.197 176 207.734 176C199.853 176 192.71 174.584 186.327 171.723ZM243.027 156.089C243.18 155.812 243.327 155.533 243.471 155.254H244.421V172.116H271.997V89.9616C271.997 81.8101 270.518 75.0172 267.559 69.5828C264.654 64.1485 260.798 59.8596 255.99 56.7162C251.183 53.5196 245.874 51.2286 240.063 49.8434C234.252 48.4582 228.415 47.7656 222.551 47.7656C214.046 47.7656 206.281 49.0442 199.255 51.6016C192.229 54.1056 186.286 57.8883 181.426 62.9497C176.865 67.6498 173.514 73.4291 171.372 80.2877C171.232 80.7373 171.097 81.1914 170.967 81.6503L197.75 85.4863C199.176 81.2773 201.923 77.6278 205.99 74.5377C210.111 71.4476 215.684 69.9025 222.71 69.9025C229.366 69.9025 234.464 71.5541 238.003 74.8573C241.542 78.1606 243.312 82.8224 243.312 88.8428V89.3223C243.312 92.0927 242.282 94.1439 240.222 95.4759C238.214 96.7545 234.992 97.7135 230.555 98.3529C226.117 98.9389 220.333 99.6049 213.201 100.351C207.285 100.99 201.553 102.029 196.006 103.468C190.512 104.853 185.573 106.904 181.189 109.621C176.804 112.338 173.344 115.961 170.808 120.49C168.273 125.018 167.005 130.746 167.005 137.672C167.005 145.717 168.775 152.483 172.314 157.971C175.906 163.458 180.766 167.614 186.894 170.438C193.075 173.208 200.021 174.593 207.734 174.593C214.073 174.593 219.593 173.714 224.295 171.956C229.049 170.145 232.985 167.774 236.101 164.844C239.011 162.105 241.319 159.187 243.027 156.089ZM217.084 119.611C218.986 119.344 221.231 119.025 223.819 118.652C226.408 118.279 229.023 117.853 231.664 117.373C234.305 116.894 236.682 116.334 238.795 115.695C240.089 115.313 241.156 114.912 241.997 114.493C242.565 114.21 243.029 113.918 243.391 113.617V128.082C243.391 132.611 242.229 136.793 239.905 140.629C237.633 144.465 234.385 147.555 230.158 149.899C225.932 152.19 220.94 153.336 215.182 153.336C209.213 153.336 204.3 151.977 200.444 149.26C196.587 146.543 194.659 142.52 194.659 137.192C194.659 133.463 195.637 130.426 197.591 128.082C199.546 125.684 202.213 123.82 205.594 122.488C208.975 121.156 212.805 120.197 217.084 119.611ZM241.997 116.043V128.082C241.997 132.354 240.904 136.282 238.715 139.895L238.707 139.908C236.575 143.509 233.518 146.429 229.493 148.663C225.508 150.822 220.753 151.929 215.182 151.929C209.422 151.929 204.809 150.619 201.242 148.107C197.81 145.688 196.054 142.126 196.054 137.192C196.054 133.719 196.959 131.026 198.659 128.987L198.668 128.975C200.446 126.794 202.903 125.058 206.102 123.798C209.362 122.513 213.082 121.578 217.272 121.004L217.276 121.004C219.18 120.737 221.427 120.417 224.017 120.044C226.622 119.669 229.254 119.24 231.911 118.757C234.592 118.271 237.02 117.7 239.191 117.044C240.233 116.736 241.175 116.405 241.997 116.043Z" fill="#0671E0"/>
<circle cx="306" cy="161" r="14" fill="#0671E0"/>
</svg>
